<?xml version="1.0" encoding="UTF-8"?>
<svg width="396px" height="119px" viewBox="0 0 396 119" version="1.1" xmlns="http://www.w3.org/2000/svg" xmlns:xlink="http://www.w3.org/1999/xlink">
    <!-- Generator: Sketch 48.2 (47327) - http://www.bohemiancoding.com/sketch -->
    <title>FLYandCLAIM-logotipoFINAL2</title>
    <desc>Created with Sketch.</desc>
    <defs></defs>
    <g id="playing-with-the-logo" stroke="none" stroke-width="1" fill="none" fill-rule="evenodd">
        <g id="FLYandCLAIM-logotipoFINAL2" fill="#0052CC" fill-rule="nonzero">
            <g id="Group" transform="translate(109.000000, 0.000000)">
                <path d="M47.586,82.392 C45.456,83.182 43.062,82.542 41.616,80.792 L36.276,74.572 L42.162,72.828 L45.704,75.168 L50.924,73.618 L43.548,64.24 L49.606,62.436 L60.368,70.432 L64.776,68.75 C68.066,67.598 70.84,67.288 73.074,69.954 L73.74,70.756 C74.214,71.314 74.146,72.152 73.586,72.628 C73.464,72.73 73.324,72.812 73.174,72.864 L73.174,72.874" id="Shape"></path>
                <path d="M49.956,85.872 C46.716,88.522 42.54,89.844 37.434,89.844 C35.106,89.844 32.914,89.462 30.864,88.712 C28.81,87.96 26.984,86.876 25.388,85.46 C23.744,84.002 22.478,82.248 21.59,80.194 C20.698,78.14 20.252,75.838 20.252,73.28 C20.252,68.536 21.396,64.844 23.676,62.194 C24.296,61.472 24.986,60.898 25.716,60.402 C19.902,58.068 15.322,55.448 11.852,52.442 C11.628,52.248 11.434,52.04 11.218,51.842 C8.69,54.078 6.566,56.66 4.928,59.664 C2.28,64.366 0.958,69.656 0.958,75.542 C0.958,80.058 1.926,84.298 3.868,88.27 C5.806,92.238 8.464,95.708 11.838,98.668 C15.168,101.588 18.966,103.862 23.234,105.478 C25.608,106.38 28.042,107.004 30.524,107.402 L30.524,111.782 C30.524,115.474 33.528,118.478 37.22,118.478 C40.96,118.478 44.002,115.474 44.002,111.782 L44.002,107.308 C45.844,107.016 47.664,106.64 49.444,106.128 C53.574,104.94 57.28,103.164 60.566,100.788 C67.862,95.546 72.196,86.752 73.568,77.31 L49.956,85.872 Z" id="Shape"></path>
                <path d="M66.73,60.458 C65.334,57.652 63.308,55.192 60.656,53.062 C58.336,51.23 55.574,49.624 52.364,48.242 C49.146,46.862 45.396,45.536 41.1,44.266 C38.26,43.444 35.928,42.724 34.098,42.108 C32.266,41.492 30.7,40.81 29.39,40.062 C27.862,39.24 26.71,38.318 25.944,37.288 C25.18,36.264 24.796,35.058 24.796,33.676 C24.796,30.276 26.232,27.812 29.108,26.28 C31.162,25.236 34.04,24.71 37.74,24.71 C40.576,24.71 43.622,25.608 46.87,27.398 C48.998,28.634 51.298,30.296 53.762,32.386 C54.884,33.32 55.8,33.786 56.51,33.786 C57.034,33.786 57.538,33.56 58.022,33.112 L64.182,26.448 C64.892,25.698 65.25,24.952 65.25,24.204 C65.25,23.496 64.916,22.804 64.242,22.134 C60.804,18.622 56.88,15.782 52.476,13.616 C49.65,12.236 46.826,11.318 44.002,10.76 L44.002,6.776 C44.002,3.084 40.998,0.08 37.306,0.08 C33.566,0.08 30.522,3.084 30.522,6.776 L30.522,10.788 C28.98,11.05 27.47,11.368 26.028,11.792 C22.292,12.894 19.08,14.474 16.392,16.528 C13.664,18.582 11.584,21.038 10.144,23.898 C8.704,26.754 7.984,29.904 7.984,33.336 C7.984,39.502 10.358,44.62 15.1,48.688 C19.584,52.574 26.496,55.9 35.834,58.662 L37.346,59.054 C38.918,59.504 40.246,59.902 41.334,60.244 C41.68,59.984 42.058,59.762 42.484,59.636 L48.546,57.832 C49.66,57.498 50.884,57.712 51.826,58.412 L60.952,65.194 L63.45,64.238 C64.408,63.904 65.984,63.356 67.804,63.196 C67.504,62.244 67.162,61.318 66.73,60.458 Z" id="Shape"></path>
            </g>
            <g id="Group" transform="translate(0.000000, 13.000000)">
                <path d="M37.208,5.126 L7.266,5.126 C3.464,5.126 0.486,8.106 0.486,11.908 L0.486,63.362 C0.486,67.164 3.464,70.142 7.266,70.142 C11.008,70.142 14.05,67.1 14.05,63.362 L14.05,44.588 L31.1,44.588 C34.84,44.588 37.884,41.548 37.884,37.806 C37.884,34.066 34.842,31.024 31.1,31.024 L14.05,31.024 L14.05,18.69 L37.21,18.69 C40.952,18.69 43.994,15.648 43.994,11.908 C43.992,8.168 40.95,5.126 37.208,5.126 Z" id="Shape"></path>
                <path d="M53.22,0.822 C49.48,0.822 46.436,3.826 46.436,7.518 L46.436,63.528 C46.436,67.332 49.416,70.312 53.22,70.312 C56.912,70.312 59.916,67.27 59.916,63.528 L59.916,7.518 C59.916,3.828 56.912,0.822 53.22,0.822 Z" id="Shape"></path>
                <path d="M94.864,22.416 C91.172,22.416 88.168,25.42 88.168,29.112 L88.168,50.452 C88.168,53.97 85.304,56.832 81.788,56.832 C78.268,56.832 75.408,53.968 75.408,50.452 L75.408,29.112 C75.408,25.42 72.404,22.416 68.712,22.416 C65.018,22.416 62.014,25.42 62.014,29.112 L62.014,50.644 C62.112,61.44 70.984,70.226 81.788,70.226 C83.988,70.226 86.142,69.874 88.168,69.192 L88.168,71.532 C88.168,75.24 85.112,78.258 81.356,78.258 C78.778,78.258 76.426,76.794 75.266,74.542 C74.196,72.204 71.822,70.694 69.212,70.694 C68.208,70.694 67.204,70.932 66.346,71.36 C64.704,72.148 63.476,73.528 62.888,75.248 C62.302,76.958 62.42,78.784 63.216,80.372 C66.67,87.382 73.624,91.738 81.358,91.738 C92.544,91.738 101.65,82.676 101.65,71.532 L101.65,29.112 C101.646,25.42 98.604,22.416 94.864,22.416 Z" id="Shape"></path>
                <path d="M216.5,5.038 C198.384,5.038 183.648,19.738 183.648,37.804 C183.648,55.682 198.384,70.226 216.5,70.226 C227.648,70.226 237.596,64.732 243.662,55.336 C244.786,53.9 245.188,52.134 244.788,50.36 C244.39,48.594 243.226,47.032 241.634,46.108 C240.638,45.228 239.318,44.748 237.862,44.748 C235.52,44.748 233.372,45.982 232.338,47.904 C228.784,53.282 222.87,56.49 216.498,56.49 C205.958,56.49 197.384,48.108 197.384,37.804 C197.384,27.49 206.136,18.776 216.498,18.776 C223.242,18.776 229.212,22.26 232.778,28.158 C233.84,30.278 236.052,31.596 238.552,31.596 C239.692,31.596 240.826,31.32 241.708,30.852 C243.356,30.098 244.61,28.664 245.154,26.918 C245.742,25.026 245.458,22.972 244.396,21.198 C238.772,11.08 228.342,5.038 216.5,5.038 Z" id="Shape"></path>
                <path d="M254.54,0.822 C250.8,0.822 247.756,3.826 247.756,7.518 L247.756,63.528 C247.756,67.332 250.736,70.312 254.54,70.312 C258.232,70.312 261.236,67.27 261.236,63.528 L261.236,7.518 C261.234,3.828 258.23,0.822 254.54,0.822 Z" id="Shape"></path>
                <path d="M287.922,22.246 C274.326,22.246 263.678,32.898 263.678,46.496 C263.678,59.754 274.326,70.14 287.922,70.14 C292.416,70.14 296.16,69.21 299.47,67.244 C300.766,69.022 302.848,70.14 304.786,70.14 C308.654,70.14 311.57,67.226 311.57,63.36 L311.57,46.496 C311.57,32.898 301.184,22.246 287.922,22.246 Z M287.922,56.746 C281.938,56.746 277.068,52.148 277.068,46.496 C277.068,40.612 282.038,35.64 287.922,35.64 C293.578,35.64 298.178,40.51 298.178,46.496 C298.178,52.34 293.77,56.746 287.922,56.746 Z" id="Shape"></path>
                <path d="M320.54,5.038 C318.812,5.038 317.028,5.794 315.778,7.054 C314.512,8.316 313.756,10.098 313.756,11.822 C313.756,13.566 314.492,15.304 315.772,16.582 C316.992,17.812 318.73,18.518 320.54,18.518 C322.342,18.518 324.082,17.816 325.312,16.582 C326.536,15.352 327.236,13.618 327.236,11.822 C327.236,10.024 326.532,8.286 325.308,7.056 C324.026,5.774 322.286,5.038 320.54,5.038 Z" id="Shape"></path>
                <path d="M320.54,22.16 C316.8,22.16 313.756,25.164 313.756,28.856 L313.756,63.528 C313.756,67.332 316.734,70.312 320.54,70.312 C324.232,70.312 327.236,67.27 327.236,63.528 L327.236,28.856 C327.234,25.164 324.23,22.16 320.54,22.16 Z" id="Shape"></path>
                <path d="M395.292,41.934 C395.292,31.078 386.422,22.246 375.518,22.246 C370.694,22.246 366.082,24.004 362.524,27.144 C358.972,24.004 354.364,22.246 349.536,22.246 C338.632,22.246 329.762,31.08 329.762,41.934 L329.762,63.618 C329.762,67.42 332.742,70.402 336.546,70.402 C340.238,70.402 343.242,67.36 343.242,63.618 L343.242,41.934 C343.242,38.51 346.064,35.726 349.536,35.726 C352.96,35.726 355.746,38.512 355.746,41.934 L355.746,63.618 C355.746,67.358 358.786,70.402 362.524,70.402 C366.22,70.402 369.226,67.36 369.226,63.618 L369.226,41.934 C369.226,38.51 372.048,35.726 375.518,35.726 C378.99,35.726 381.812,38.512 381.812,41.934 L381.812,63.618 C381.812,67.358 384.816,70.402 388.508,70.402 C392.248,70.402 395.292,67.36 395.292,63.618 L395.292,42.708 C395.292,42.582 395.29,42.452 395.278,42.316 C395.292,42.152 395.292,42.02 395.292,41.934 Z" id="Shape"></path>
            </g>
        </g>
    </g>
</svg>