<?xml version="1.0" encoding="UTF-8"?>
<svg width="14px" height="14px" viewBox="0 0 14 14" version="1.1" xmlns="http://www.w3.org/2000/svg" xmlns:xlink="http://www.w3.org/1999/xlink">
    <!-- Generator: Sketch 48.2 (47327) - http://www.bohemiancoding.com/sketch -->
    <title>metal-paper-clip-</title>
    <desc>Created with Sketch.</desc>
    <defs></defs>
    <g id="Desktop-HD" stroke="none" stroke-width="1" fill="none" fill-rule="evenodd" transform="translate(-396.000000, -434.000000)">
        <g id="Group-10" transform="translate(374.000000, 244.000000)" fill="#FFFFFF" fill-rule="nonzero">
            <g id="Group-9" transform="translate(0.000000, 130.000000)">
                <g id="Group-4">
                    <g id="metal-paper-clip-" transform="translate(22.000000, 60.000000)">
                        <path d="M2.48539837,13.9744053 C1.82207724,13.9744053 1.19879268,13.6942819 0.730020325,13.1863656 C-0.237743902,12.1374758 -0.237743902,10.4307401 0.730020325,9.38197357 L8.40406911,1.06520264 C9.02231707,0.394497797 9.84518699,0.0255947137 10.7200447,0.0255947137 C11.5950447,0.0255947137 12.4178862,0.394497797 13.0361626,1.06520264 C13.6550081,1.73572247 13.9958455,2.62694273 13.9958455,3.57499559 C13.9958455,4.52323348 13.6554065,5.41442291 13.0366748,6.08454185 L6.99553252,12.6307137 C6.81415854,12.8271762 6.52044309,12.8271762 6.33915447,12.6307137 C6.15778049,12.4341894 6.15778049,12.1158899 6.33915447,11.919304 L12.3801545,5.37313216 C12.8235732,4.89269163 13.067435,4.25402643 13.067435,3.57499559 C13.067435,2.89608811 12.823061,2.25702203 12.3797561,1.77651982 C11.9363374,1.2960793 11.347,1.03168282 10.7200447,1.03168282 C10.0932033,1.03168282 9.50386585,1.2960793 9.06044715,1.77651982 L1.38648374,10.0932907 C0.780869919,10.7501498 0.780869919,11.8182511 1.38648374,12.4749559 C1.97394309,13.1107225 2.99673984,13.1107225 3.58417073,12.4749559 L8.73716667,6.89022026 C8.87728049,6.73837885 8.95755285,6.52819383 8.95755285,6.31393833 C8.95755285,6.09669163 8.87915854,5.89190308 8.73676829,5.73762555 C8.44393496,5.42028194 7.96656911,5.41932599 7.67373577,5.73762555 L4.15447154,9.55188546 C3.97321138,9.74847137 3.67935366,9.74847137 3.4980935,9.55188546 C3.31671951,9.35542291 3.31671951,9.037 3.4980935,8.84059912 L7.0172439,5.02633921 C7.67185772,4.31696476 8.73767886,4.31696476 9.3931748,5.02633921 C9.71099187,5.3706652 9.88593496,5.82810132 9.88593496,6.31396916 C9.88593496,6.79339207 9.70643902,7.26257709 9.39365854,7.60153744 L4.2406626,13.1863656 C3.77189024,13.6942819 3.14857724,13.9744053 2.48539837,13.9744053 Z" id="Shape"></path>
                    </g>
                </g>
            </g>
        </g>
    </g>
</svg>