<?xml version="1.0" encoding="UTF-8"?>
<svg width="396px" height="119px" viewBox="0 0 396 119" version="1.1" xmlns="http://www.w3.org/2000/svg" xmlns:xlink="http://www.w3.org/1999/xlink">
    <!-- Generator: Sketch 48.2 (47327) - http://www.bohemiancoding.com/sketch -->
    <title>FLYandCLAIM-logotipoFINAL2</title>
    <desc>Created with Sketch.</desc>
    <defs>
        <path d="M48.586,82.392 C46.456,83.182 44.062,82.542 42.616,80.792 L37.276,74.572 L43.162,72.828 L46.704,75.168 L51.924,73.618 L44.548,64.24 L50.606,62.436 L61.368,70.432 L65.776,68.75 C69.066,67.598 71.84,67.288 74.074,69.954 L74.74,70.756 C75.214,71.314 75.146,72.152 74.586,72.628 C74.464,72.73 74.324,72.812 74.174,72.864 L74.174,72.874" id="path-1"></path>
        <path d="M50.956,85.872 C47.716,88.522 43.54,89.844 38.434,89.844 C36.106,89.844 33.914,89.462 31.864,88.712 C29.81,87.96 27.984,86.876 26.388,85.46 C24.744,84.002 23.478,82.248 22.59,80.194 C21.698,78.14 21.252,75.838 21.252,73.28 C21.252,68.536 22.396,64.844 24.676,62.194 C25.296,61.472 25.986,60.898 26.716,60.402 C20.902,58.068 16.322,55.448 12.852,52.442 C12.628,52.248 12.434,52.04 12.218,51.842 C9.69,54.078 7.566,56.66 5.928,59.664 C3.28,64.366 1.958,69.656 1.958,75.542 C1.958,80.058 2.926,84.298 4.868,88.27 C6.806,92.238 9.464,95.708 12.838,98.668 C16.168,101.588 19.966,103.862 24.234,105.478 C26.608,106.38 29.042,107.004 31.524,107.402 L31.524,111.782 C31.524,115.474 34.528,118.478 38.22,118.478 C41.96,118.478 45.002,115.474 45.002,111.782 L45.002,107.308 C46.844,107.016 48.664,106.64 50.444,106.128 C54.574,104.94 58.28,103.164 61.566,100.788 C68.862,95.546 73.196,86.752 74.568,77.31 L50.956,85.872 Z" id="path-2"></path>
        <path d="M37.208,5.126 L7.266,5.126 C3.464,5.126 0.486,8.106 0.486,11.908 L0.486,63.362 C0.486,67.164 3.464,70.142 7.266,70.142 C11.008,70.142 14.05,67.1 14.05,63.362 L14.05,44.588 L31.1,44.588 C34.84,44.588 37.884,41.548 37.884,37.806 C37.884,34.066 34.842,31.024 31.1,31.024 L14.05,31.024 L14.05,18.69 L37.21,18.69 C40.952,18.69 43.994,15.648 43.994,11.908 C43.992,8.168 40.95,5.126 37.208,5.126 Z" id="path-3"></path>
        <path d="M53.22,0.822 C49.48,0.822 46.436,3.826 46.436,7.518 L46.436,63.528 C46.436,67.332 49.416,70.312 53.22,70.312 C56.912,70.312 59.916,67.27 59.916,63.528 L59.916,7.518 C59.916,3.828 56.912,0.822 53.22,0.822 Z" id="path-4"></path>
        <path d="M94.864,22.416 C91.172,22.416 88.168,25.42 88.168,29.112 L88.168,50.452 C88.168,53.97 85.304,56.832 81.788,56.832 C78.268,56.832 75.408,53.968 75.408,50.452 L75.408,29.112 C75.408,25.42 72.404,22.416 68.712,22.416 C65.018,22.416 62.014,25.42 62.014,29.112 L62.014,50.644 C62.112,61.44 70.984,70.226 81.788,70.226 C83.988,70.226 86.142,69.874 88.168,69.192 L88.168,71.532 C88.168,75.24 85.112,78.258 81.356,78.258 C78.778,78.258 76.426,76.794 75.266,74.542 C74.196,72.204 71.822,70.694 69.212,70.694 C68.208,70.694 67.204,70.932 66.346,71.36 C64.704,72.148 63.476,73.528 62.888,75.248 C62.302,76.958 62.42,78.784 63.216,80.372 C66.67,87.382 73.624,91.738 81.358,91.738 C92.544,91.738 101.65,82.676 101.65,71.532 L101.65,29.112 C101.646,25.42 98.604,22.416 94.864,22.416 Z" id="path-5"></path>
        <path d="M216.5,5.038 C198.384,5.038 183.648,19.738 183.648,37.804 C183.648,55.682 198.384,70.226 216.5,70.226 C227.648,70.226 237.596,64.732 243.662,55.336 C244.786,53.9 245.188,52.134 244.788,50.36 C244.39,48.594 243.226,47.032 241.634,46.108 C240.638,45.228 239.318,44.748 237.862,44.748 C235.52,44.748 233.372,45.982 232.338,47.904 C228.784,53.282 222.87,56.49 216.498,56.49 C205.958,56.49 197.384,48.108 197.384,37.804 C197.384,27.49 206.136,18.776 216.498,18.776 C223.242,18.776 229.212,22.26 232.778,28.158 C233.84,30.278 236.052,31.596 238.552,31.596 C239.692,31.596 240.826,31.32 241.708,30.852 C243.356,30.098 244.61,28.664 245.154,26.918 C245.742,25.026 245.458,22.972 244.396,21.198 C238.772,11.08 228.342,5.038 216.5,5.038 Z" id="path-6"></path>
        <path d="M254.54,0.822 C250.8,0.822 247.756,3.826 247.756,7.518 L247.756,63.528 C247.756,67.332 250.736,70.312 254.54,70.312 C258.232,70.312 261.236,67.27 261.236,63.528 L261.236,7.518 C261.234,3.828 258.23,0.822 254.54,0.822 Z" id="path-7"></path>
        <path d="M287.922,22.246 C274.326,22.246 263.678,32.898 263.678,46.496 C263.678,59.754 274.326,70.14 287.922,70.14 C292.416,70.14 296.16,69.21 299.47,67.244 C300.766,69.022 302.848,70.14 304.786,70.14 C308.654,70.14 311.57,67.226 311.57,63.36 L311.57,46.496 C311.57,32.898 301.184,22.246 287.922,22.246 Z M287.922,56.746 C281.938,56.746 277.068,52.148 277.068,46.496 C277.068,40.612 282.038,35.64 287.922,35.64 C293.578,35.64 298.178,40.51 298.178,46.496 C298.178,52.34 293.77,56.746 287.922,56.746 Z" id="path-8"></path>
        <path d="M320.54,5.038 C318.812,5.038 317.028,5.794 315.778,7.054 C314.512,8.316 313.756,10.098 313.756,11.822 C313.756,13.566 314.492,15.304 315.772,16.582 C316.992,17.812 318.73,18.518 320.54,18.518 C322.342,18.518 324.082,17.816 325.312,16.582 C326.536,15.352 327.236,13.618 327.236,11.822 C327.236,10.024 326.532,8.286 325.308,7.056 C324.026,5.774 322.286,5.038 320.54,5.038 Z" id="path-9"></path>
        <path d="M320.54,22.16 C316.8,22.16 313.756,25.164 313.756,28.856 L313.756,63.528 C313.756,67.332 316.734,70.312 320.54,70.312 C324.232,70.312 327.236,67.27 327.236,63.528 L327.236,28.856 C327.234,25.164 324.23,22.16 320.54,22.16 Z" id="path-10"></path>
        <path d="M395.292,41.934 C395.292,31.078 386.422,22.246 375.518,22.246 C370.694,22.246 366.082,24.004 362.524,27.144 C358.972,24.004 354.364,22.246 349.536,22.246 C338.632,22.246 329.762,31.08 329.762,41.934 L329.762,63.618 C329.762,67.42 332.742,70.402 336.546,70.402 C340.238,70.402 343.242,67.36 343.242,63.618 L343.242,41.934 C343.242,38.51 346.064,35.726 349.536,35.726 C352.96,35.726 355.746,38.512 355.746,41.934 L355.746,63.618 C355.746,67.358 358.786,70.402 362.524,70.402 C366.22,70.402 369.226,67.36 369.226,63.618 L369.226,41.934 C369.226,38.51 372.048,35.726 375.518,35.726 C378.99,35.726 381.812,38.512 381.812,41.934 L381.812,63.618 C381.812,67.358 384.816,70.402 388.508,70.402 C392.248,70.402 395.292,67.36 395.292,63.618 L395.292,42.708 C395.292,42.582 395.29,42.452 395.278,42.316 C395.292,42.152 395.292,42.02 395.292,41.934 Z" id="path-11"></path>
    </defs>
    <g id="playing-with-the-logo" stroke="none" stroke-width="1" fill="none" fill-rule="evenodd">
        <g id="FLYandCLAIM-logotipoFINAL2" fill-rule="nonzero">
            <g id="Group" transform="translate(108.000000, 0.000000)">
                <g id="Shape">
                    <use fill="#2A56A3" fill-rule="evenodd" xlink:href="#path-1"></use>
                    <use fill="#253858" fill-rule="evenodd" xlink:href="#path-1"></use>
                </g>
                <g id="Shape">
                    <use fill="#2A56A3" fill-rule="evenodd" xlink:href="#path-2"></use>
                    <use fill="#253858" fill-rule="evenodd" xlink:href="#path-2"></use>
                </g>
                <path d="M67.73,60.458 C66.334,57.652 64.308,55.192 61.656,53.062 C59.336,51.23 56.574,49.624 53.364,48.242 C50.146,46.862 46.396,45.536 42.1,44.266 C39.26,43.444 36.928,42.724 35.098,42.108 C33.266,41.492 31.7,40.81 30.39,40.062 C28.862,39.24 27.71,38.318 26.944,37.288 C26.18,36.264 25.796,35.058 25.796,33.676 C25.796,30.276 27.232,27.812 30.108,26.28 C32.162,25.236 35.04,24.71 38.74,24.71 C41.576,24.71 44.622,25.608 47.87,27.398 C49.998,28.634 52.298,30.296 54.762,32.386 C55.884,33.32 56.8,33.786 57.51,33.786 C58.034,33.786 58.538,33.56 59.022,33.112 L65.182,26.448 C65.892,25.698 66.25,24.952 66.25,24.204 C66.25,23.496 65.916,22.804 65.242,22.134 C61.804,18.622 57.88,15.782 53.476,13.616 C50.65,12.236 47.826,11.318 45.002,10.76 L45.002,6.776 C45.002,3.084 41.998,0.08 38.306,0.08 C34.566,0.08 31.522,3.084 31.522,6.776 L31.522,10.788 C29.98,11.05 28.47,11.368 27.028,11.792 C23.292,12.894 20.08,14.474 17.392,16.528 C14.664,18.582 12.584,21.038 11.144,23.898 C9.704,26.754 8.984,29.904 8.984,33.336 C8.984,39.502 11.358,44.62 16.1,48.688 C20.584,52.574 27.496,55.9 36.834,58.662 L38.346,59.054 C39.918,59.504 41.246,59.902 42.334,60.244 C42.68,59.984 43.058,59.762 43.484,59.636 L49.546,57.832 C50.66,57.498 51.884,57.712 52.826,58.412 L61.952,65.194 L64.45,64.238 C65.408,63.904 66.984,63.356 68.804,63.196 C68.504,62.244 68.162,61.318 67.73,60.458 Z" id="Shape" fill="#0052CC"></path>
            </g>
            <g id="Group" transform="translate(0.000000, 13.000000)">
                <g id="Shape">
                    <use fill="#0052CC" fill-rule="evenodd" xlink:href="#path-3"></use>
                    <use fill="#253858" fill-rule="evenodd" xlink:href="#path-3"></use>
                </g>
                <g id="Shape">
                    <use fill="#0052CC" fill-rule="evenodd" xlink:href="#path-4"></use>
                    <use fill="#253858" fill-rule="evenodd" xlink:href="#path-4"></use>
                </g>
                <g id="Shape">
                    <use fill="#0052CC" fill-rule="evenodd" xlink:href="#path-5"></use>
                    <use fill="#253858" fill-rule="evenodd" xlink:href="#path-5"></use>
                </g>
                <g id="Shape">
                    <use fill="#0052CC" fill-rule="evenodd" xlink:href="#path-6"></use>
                    <use fill="#253858" fill-rule="evenodd" xlink:href="#path-6"></use>
                </g>
                <g id="Shape">
                    <use fill="#0052CC" fill-rule="evenodd" xlink:href="#path-7"></use>
                    <use fill="#253858" fill-rule="evenodd" xlink:href="#path-7"></use>
                </g>
                <g id="Shape">
                    <use fill="#0052CC" fill-rule="evenodd" xlink:href="#path-8"></use>
                    <use fill="#253858" fill-rule="evenodd" xlink:href="#path-8"></use>
                </g>
                <g id="Shape">
                    <use fill="#0052CC" fill-rule="evenodd" xlink:href="#path-9"></use>
                    <use fill="#253858" fill-rule="evenodd" xlink:href="#path-9"></use>
                </g>
                <g id="Shape">
                    <use fill="#0052CC" fill-rule="evenodd" xlink:href="#path-10"></use>
                    <use fill="#253858" fill-rule="evenodd" xlink:href="#path-10"></use>
                </g>
                <g id="Shape">
                    <use fill="#0052CC" fill-rule="evenodd" xlink:href="#path-11"></use>
                    <use fill="#253858" fill-rule="evenodd" xlink:href="#path-11"></use>
                </g>
            </g>
        </g>
    </g>
</svg>